<?xml version="1.0" standalone="no"?><!DOCTYPE svg PUBLIC "-//W3C//DTD SVG 1.1//EN" "http://www.w3.org/Graphics/SVG/1.1/DTD/svg11.dtd"><svg t="1526376226284" class="icon" style="" viewBox="0 0 1774 1024" version="1.1" xmlns="http://www.w3.org/2000/svg" p-id="3275" xmlns:xlink="http://www.w3.org/1999/xlink" width="866.2109375" height="500"><defs><style type="text/css"></style></defs><path d="M641.706667 819.2c-78.506667 71.68-133.12 68.266667-187.733334 13.653333l-61.44-64.853333c-54.613333-54.613333-54.613333-143.36 0-194.56L658.773333 307.2c54.613333-54.613333 139.946667-54.613333 194.56 0l47.786667 47.786667c40.96 40.96 51.2 102.4 27.306667 153.6l119.466666 88.746666c81.92-81.92 81.92-211.626667 0-293.546666l-146.773333-146.773334c-81.92-81.92-211.626667-81.92-293.546667 0L249.173333 522.24c-81.92 81.92-81.92 211.626667 0 293.546667l146.773334 146.773333c81.92 81.92 211.626667 81.92 293.546666 0l139.946667-143.36-98.986667-95.573333-88.746666 95.573333zM1536 208.213333l-146.773333-146.773333c-81.92-81.92-211.626667-81.92-293.546667 0 0 0 6.826667 0-78.506667 85.333333L1116.16 238.933333 1160.533333 191.146667c54.613333-54.613333 139.946667-54.613333 194.56 0L1402.88 238.933333c54.613333 54.613333 54.613333 143.36 0 194.56l-238.933333 249.173334c-54.613333 54.613333-139.946667 54.613333-194.56 0l-40.96-64.853334c-85.333333-64.853333-58.026667-78.506667-51.2-119.466666l-105.813334-105.813334c-81.92 81.92-81.92 211.626667 0 293.546667l146.773334 146.773333c81.92 81.92 211.626667 81.92 293.546666 0l327.68-327.68c112.64-136.533333-3.413333-296.96-3.413333-296.96z" p-id="3276"></path></svg>